# xmcd
#
# Track frame offsets:
#	150
#	7606
#	16747
#	28286
#	36852
#	48840
#	58952
#	66204
#	77265
#	83667
#	89739
#	97894
#	106604
#	118031
#	128436
#	139085
#	150056
#	159793
#	173226
#
# Disc length: 2444 seconds
#
# Revision: 1
# Processed by: cddbd v1.5.1PL0 Copyright (c) Steve Scherf et al.
# Submitted via: audiograbber 1.82.02
#
DISCID=ce098a13
DTITLE=Buzz Busby - Going Home (Starday 57-59)
DYEAR=1900
DGENRE=Bluegrass
TTITLE0=Talking Banjo
TTITLE1=Whose Red Wagon
TTITLE2=The Lonesome Road
TTITLE3=Buzz's Ramble
TTITLE4=Lonesome Wind
TTITLE5=Lost
TTITLE6=Mandolin Tango
TTITLE7=I Don't Mind 
TTITLE8=Banjo Whiz
TTITLE9=Windy Strings
TTITLE10=Going Home
TTITLE11=Me and The Juke Box
TTITLE12=Cold and Windy Night
TTITLE13=Reno Bound
TTITLE14=Where Will This End
TTITLE15=Tragic Highway
TTITLE16=Don't Come Running Back to Me
TTITLE17=I'll Cry Tomorrow
TTITLE18=Love Is A Stranger
EXTD=
EXTT0=
EXTT1=
EXTT2=
EXTT3=
EXTT4=
EXTT5=
EXTT6=
EXTT7=
EXTT8=
EXTT9=
EXTT10=
EXTT11=
EXTT12=
EXTT13=
EXTT14=
EXTT15=
EXTT16=
EXTT17=
EXTT18=
PLAYORDER=
